<svg width="129" height="48" viewBox="0 0 129 48" fill="none" xmlns="http://www.w3.org/2000/svg">
<mask id="mask0_843_1157" style="mask-type:alpha" maskUnits="userSpaceOnUse" x="14" y="11" width="101" height="26">
<path d="M16.9582 35.6708H15.7572C15.4989 35.6708 15.2889 35.4597 15.2889 35.2003C15.2889 35.1976 15.2867 35.1953 15.284 35.1953H14.3384C14.3357 35.1953 14.3335 35.1976 14.3335 35.2003C14.3335 35.989 14.9722 36.6306 15.7572 36.6306H16.9582C17.7433 36.6306 18.3819 35.989 18.3819 35.2003C18.3819 34.4116 17.7432 33.77 16.9582 33.77H15.7572C15.4989 33.77 15.2889 33.5589 15.2889 33.2995C15.2889 33.0401 15.4989 32.8291 15.7572 32.8291H16.9582C17.2165 32.8291 17.4265 33.0401 17.4265 33.2995C17.4265 33.3023 17.4287 33.3045 17.4314 33.3045H18.377C18.3797 33.3045 18.3819 33.3023 18.3819 33.2995C18.3819 32.5109 17.7432 31.8692 16.9582 31.8692H15.7572C14.9721 31.8692 14.3335 32.5109 14.3335 33.2995C14.3335 34.0882 14.9722 34.7298 15.7572 34.7298H16.9582C17.2165 34.7298 17.4265 34.9409 17.4265 35.2003C17.4265 35.4597 17.2165 35.6708 16.9582 35.6708Z" fill="white"/>
<path d="M20.4073 36.6307H21.4003C21.4025 36.6307 21.4044 36.6293 21.405 36.6272L21.6122 35.9803H23.2391L23.4463 36.6272C23.447 36.6293 23.4488 36.6307 23.451 36.6307H24.444C24.4456 36.6307 24.447 36.6299 24.448 36.6287C24.4489 36.6274 24.4492 36.6257 24.4487 36.6242L22.9269 31.8728C22.9262 31.8707 22.9244 31.8693 22.9222 31.8693H21.9292C21.927 31.8693 21.9251 31.8707 21.9245 31.8728L20.4026 36.6242C20.4021 36.6257 20.4023 36.6274 20.4033 36.6287C20.4042 36.6299 20.4057 36.6307 20.4073 36.6307ZM21.9198 35.0199L22.4257 33.4405L22.9315 35.0199H21.9198Z" fill="white"/>
<path d="M26.8145 36.6306H27.76C27.7628 36.6306 27.765 36.6283 27.765 36.6256V31.8742C27.765 31.8714 27.7628 31.8692 27.76 31.8692H26.8145C26.8118 31.8692 26.8096 31.8714 26.8096 31.8742V36.6256C26.8096 36.6283 26.8118 36.6306 26.8145 36.6306Z" fill="white"/>
<path d="M30.1309 32.8294H31.6714V36.6256C31.6714 36.6283 31.6736 36.6306 31.6764 36.6306H32.6222C32.625 36.6306 32.6272 36.6283 32.6272 36.6256V32.8294H34.1677C34.1704 32.8294 34.1726 32.8272 34.1726 32.8245V31.8742C34.1726 31.8714 34.1704 31.8692 34.1677 31.8692H30.1309C30.1282 31.8692 30.126 31.8714 30.126 31.8742V32.8245C30.126 32.8272 30.1281 32.8294 30.1309 32.8294Z" fill="white"/>
<path d="M35.253 36.6307H36.246C36.2482 36.6307 36.2501 36.6293 36.2507 36.6272L36.4579 35.9803H38.0848L38.292 36.6272C38.2927 36.6293 38.2945 36.6307 38.2967 36.6307H39.2897C39.2913 36.6307 39.2927 36.6299 39.2937 36.6287C39.2946 36.6274 39.2949 36.6257 39.2944 36.6242L37.7726 31.8728C37.7719 31.8707 37.7701 31.8693 37.7679 31.8693H36.7749C36.7727 31.8693 36.7708 31.8707 36.7702 31.8728L35.2483 36.6242C35.2478 36.6257 35.248 36.6274 35.249 36.6287C35.2499 36.6299 35.2514 36.6307 35.253 36.6307ZM36.7655 35.0199L37.2714 33.4405L37.7772 35.0199H36.7655Z" fill="white"/>
<path d="M45.6979 36.6257C45.6979 36.6285 45.7001 36.6307 45.7028 36.6307H46.6485C46.6512 36.6307 46.6534 36.6285 46.6534 36.6257V31.8743C46.6534 31.8716 46.6512 31.8693 46.6485 31.8693H45.5366C45.5349 31.8693 45.5333 31.8702 45.5325 31.8717L44.1541 34.1112L42.7757 31.8717C42.7748 31.8702 42.7732 31.8693 42.7715 31.8693H41.6597C41.657 31.8693 41.6548 31.8716 41.6548 31.8743V36.6257C41.6548 36.6285 41.657 36.6307 41.6597 36.6307H42.605C42.6077 36.6307 42.6099 36.6285 42.6099 36.6257V33.427L44.1499 35.9289C44.1517 35.9318 44.1565 35.9318 44.1583 35.9289L45.6979 33.4278L45.6979 36.6257Z" fill="white"/>
<path d="M49.0206 36.6307H50.0136C50.0157 36.6307 50.0176 36.6293 50.0183 36.6272L50.2255 35.9803H51.8524L52.0596 36.6272C52.0602 36.6293 52.0621 36.6307 52.0643 36.6307H53.0573C53.0589 36.6307 53.0603 36.6299 53.0613 36.6287C53.0622 36.6274 53.0625 36.6257 53.062 36.6242L51.5402 31.8728C51.5395 31.8707 51.5377 31.8693 51.5355 31.8693H50.5425C50.5403 31.8693 50.5384 31.8707 50.5378 31.8728L49.0159 36.6242C49.0154 36.6257 49.0156 36.6274 49.0166 36.6287C49.0175 36.6299 49.019 36.6307 49.0206 36.6307ZM50.5331 35.0199L51.0389 33.4405L51.5448 35.0199H50.5331Z" fill="white"/>
<path d="M63.281 31.8693H62.3355C62.3328 31.8693 62.3306 31.8716 62.3306 31.8743V34.5978C62.3306 35.1894 61.8515 35.6707 61.2626 35.6707C60.6737 35.6707 60.1946 35.1894 60.1946 34.5978V31.8743C60.1946 31.8716 60.1924 31.8693 60.1897 31.8693H59.2442C59.2415 31.8693 59.2393 31.8716 59.2393 31.8743V34.5978C59.2393 35.7187 60.1469 36.6306 61.2626 36.6306C62.3783 36.6306 63.286 35.7187 63.286 34.5978V31.8743C63.286 31.8716 63.2838 31.8693 63.281 31.8693Z" fill="white"/>
<path d="M65.6514 36.6307H66.5967C66.5994 36.6307 66.6016 36.6285 66.6016 36.6257V33.4274L68.5722 36.6283C68.5731 36.6298 68.5747 36.6307 68.5764 36.6307H69.6882C69.6909 36.6307 69.6931 36.6285 69.6931 36.6257V31.8743C69.6931 31.8716 69.6909 31.8693 69.6882 31.8693H68.7425C68.7398 31.8693 68.7376 31.8716 68.7376 31.8743V35.0726L66.7674 31.8717C66.7666 31.8702 66.765 31.8693 66.7633 31.8693H65.6514C65.6487 31.8693 65.6465 31.8716 65.6465 31.8743V36.6257C65.6465 36.6285 65.6487 36.6307 65.6514 36.6307Z" fill="white"/>
<path d="M72.0586 36.6306H73.0042C73.0069 36.6306 73.0091 36.6283 73.0091 36.6256V31.8742C73.0091 31.8714 73.0069 31.8692 73.0042 31.8692H72.0586C72.0559 31.8692 72.0537 31.8714 72.0537 31.8742V36.6256C72.0537 36.6283 72.0559 36.6306 72.0586 36.6306Z" fill="white"/>
<path d="M76.8969 36.6307H77.89C77.8921 36.6307 77.894 36.6293 77.8947 36.6272L79.4165 31.8758C79.417 31.8743 79.4168 31.8726 79.4158 31.8714C79.4149 31.8701 79.4134 31.8693 79.4118 31.8693H78.4188C78.4166 31.8693 78.4147 31.8707 78.4141 31.8728L77.3935 35.0596L76.3728 31.8728C76.3721 31.8707 76.3702 31.8693 76.3681 31.8693H75.3751C75.3735 31.8693 75.372 31.8701 75.3711 31.8714C75.3701 31.8726 75.3699 31.8743 75.3703 31.8758L76.8922 36.6272C76.8929 36.6293 76.8948 36.6307 76.8969 36.6307Z" fill="white"/>
<path d="M81.7818 36.6306H85.8187C85.8214 36.6306 85.8236 36.6283 85.8236 36.6256V35.6753C85.8236 35.6726 85.8214 35.6704 85.8187 35.6704H82.7327V34.73H84.8731C84.8759 34.73 84.8781 34.7278 84.8781 34.725V33.7747C84.8781 33.772 84.8759 33.7698 84.8731 33.7698H82.7327V32.8294H85.8187C85.8214 32.8294 85.8236 32.8272 85.8236 32.8245V31.8742C85.8236 31.8714 85.8214 31.8692 85.8187 31.8692H81.7818C81.7791 31.8692 81.7769 31.8714 81.7769 31.8742V36.6256C81.7769 36.6283 81.7791 36.6306 81.7818 36.6306Z" fill="white"/>
<path d="M88.1891 36.6307H89.1347C89.1375 36.6307 89.1397 36.6285 89.1397 36.6257V35.5898H90.3791C90.4094 35.5898 90.4397 35.589 90.4695 35.5875L91.1102 36.6283C91.1111 36.6298 91.1127 36.6307 91.1144 36.6307H92.2258C92.2276 36.6307 92.2292 36.6297 92.2301 36.6281C92.2309 36.6266 92.2309 36.6247 92.23 36.6231L91.4029 35.2793C91.9212 34.9337 92.2307 34.3549 92.2307 33.7296C92.2307 32.7038 91.4 31.8693 90.379 31.8693H88.189C88.1863 31.8693 88.1841 31.8716 88.1841 31.8743V36.6257C88.1842 36.6285 88.1864 36.6307 88.1891 36.6307ZM90.8957 34.4651C90.7448 34.5729 90.5662 34.6299 90.3791 34.6299H89.1397V32.8293H90.3791C90.8733 32.8293 91.2752 33.2332 91.2752 33.7296C91.2752 34.0215 91.1334 34.2965 90.8957 34.4651Z" fill="white"/>
<path d="M97.1145 35.6708H95.9134C95.6552 35.6708 95.4451 35.4597 95.4451 35.2003C95.4451 35.1976 95.4429 35.1953 95.4402 35.1953H94.4947C94.492 35.1953 94.4897 35.1976 94.4897 35.2003C94.4897 35.989 95.1284 36.6306 95.9134 36.6306H97.1145C97.8995 36.6306 98.5382 35.989 98.5382 35.2003C98.5382 34.4116 97.8995 33.77 97.1145 33.77H95.9134C95.6552 33.77 95.4451 33.5589 95.4451 33.2995C95.4451 33.0401 95.6552 32.8291 95.9134 32.8291H97.1145C97.3727 32.8291 97.5828 33.0401 97.5828 33.2995C97.5828 33.3023 97.585 33.3045 97.5877 33.3045H98.5332C98.5359 33.3045 98.5382 33.3023 98.5382 33.2995C98.5382 32.5109 97.8995 31.8692 97.1145 31.8692H95.9134C95.1284 31.8692 94.4897 32.5109 94.4897 33.2995C94.4897 34.0882 95.1284 34.7298 95.9134 34.7298H97.1145C97.3727 34.7298 97.5828 34.9409 97.5828 35.2003C97.5828 35.4597 97.3727 35.6708 97.1145 35.6708Z" fill="white"/>
<path d="M100.902 36.6306H101.847C101.85 36.6306 101.852 36.6283 101.852 36.6256V31.8742C101.852 31.8714 101.85 31.8692 101.847 31.8692H100.902C100.899 31.8692 100.897 31.8714 100.897 31.8742V36.6256C100.897 36.6283 100.899 36.6306 100.902 36.6306Z" fill="white"/>
<path d="M104.218 32.8294H105.758V36.6256C105.758 36.6283 105.761 36.6306 105.763 36.6306H106.709C106.712 36.6306 106.714 36.6283 106.714 36.6256V32.8294H108.255C108.257 32.8294 108.26 32.8272 108.26 32.8245V31.8742C108.26 31.8714 108.257 31.8692 108.255 31.8692H104.218C104.215 31.8692 104.213 31.8714 104.213 31.8742V32.8245C104.213 32.8272 104.215 32.8294 104.218 32.8294Z" fill="white"/>
<path d="M114.666 31.8716C114.665 31.8702 114.663 31.8693 114.662 31.8693H113.621C113.619 31.8693 113.617 31.8705 113.616 31.8722L112.643 33.9869L111.671 31.8722C111.67 31.8705 111.668 31.8693 111.666 31.8693H110.625C110.623 31.8693 110.622 31.8702 110.621 31.8716C110.62 31.8731 110.62 31.8749 110.621 31.8764L112.118 35.1334L112.166 35.2371V36.6257C112.166 36.6285 112.168 36.6307 112.171 36.6307H113.116C113.119 36.6307 113.121 36.6285 113.121 36.6257V35.2373L113.169 35.1333C113.169 35.1332 113.169 35.133 113.169 35.1329L114.666 31.8764C114.667 31.8749 114.667 31.8731 114.666 31.8716Z" fill="white"/>
<path d="M28.6114 28.167C28.6114 28.1767 28.6192 28.1845 28.6288 28.1845H31.9683C31.9779 28.1845 31.9857 28.1767 31.9857 28.167V11.3877C31.9857 11.378 31.9779 11.3702 31.9683 11.3702H28.042C28.036 11.3702 28.0303 11.3733 28.0272 11.3785L23.1596 19.287L18.292 11.3785C18.2889 11.3733 18.2832 11.3702 18.2772 11.3702H14.3509C14.3413 11.3702 14.3335 11.378 14.3335 11.3877V28.167C14.3335 28.1767 14.3413 28.1845 14.3509 28.1845H17.689C17.6986 28.1845 17.7064 28.1767 17.7064 28.167V16.8711L23.1448 25.7062C23.1511 25.7166 23.1682 25.7166 23.1745 25.7062L28.6115 16.8739L28.6114 28.167Z" fill="white"/>
<path d="M55.4918 16.5971C55.495 16.6023 55.5006 16.6053 55.5066 16.6053C55.5126 16.6053 55.5182 16.6023 55.5214 16.5971L58.7229 11.3965C58.7262 11.3911 58.7264 11.3843 58.7233 11.3787C58.7202 11.3731 58.7144 11.3698 58.7081 11.3698H52.3051C52.2988 11.3698 52.293 11.3731 52.2899 11.3787C52.2868 11.3843 52.287 11.3911 52.2903 11.3965L55.4918 16.5971ZM55.5215 22.9568C55.5151 22.9466 55.4982 22.9466 55.4918 22.9568L52.2903 28.1573C52.287 28.1628 52.2868 28.1695 52.2899 28.1751C52.293 28.1807 52.2988 28.1841 52.3051 28.1841H58.7081C58.7144 28.1841 58.7202 28.1807 58.7233 28.1751C58.7264 28.1695 58.7262 28.1628 58.7229 28.1573L55.5215 22.9568ZM53.5592 19.7684L48.3953 11.378C48.395 11.3775 48.3942 11.3773 48.3937 11.3768C48.3925 11.3751 48.391 11.3741 48.3892 11.373C48.3875 11.372 48.3859 11.3713 48.384 11.3709C48.3827 11.3706 48.3818 11.3694 48.3804 11.3694H41.5759C41.5757 11.3694 41.5754 11.3698 41.5751 11.3698H39.4992C39.4917 11.3698 39.4849 11.3747 39.4826 11.382L34.1082 28.1613C34.1066 28.1666 34.1075 28.1725 34.1107 28.177C34.1139 28.1814 34.1192 28.1841 34.1248 28.1841H37.6316C37.6391 28.1841 37.6459 28.1792 37.6481 28.1719L38.3799 25.8873H44.1253L44.857 28.1719C44.8594 28.1792 44.8661 28.1841 44.8736 28.1841H48.3804C48.3815 28.1841 48.3826 28.184 48.3837 28.1838C48.388 28.183 48.3915 28.1805 48.394 28.1772C48.394 28.1771 48.3943 28.1771 48.3944 28.177C48.3946 28.1768 48.3944 28.1764 48.3946 28.1763C48.3947 28.1761 48.395 28.1761 48.3951 28.176L53.5591 19.787C53.5626 19.7813 53.5626 19.7741 53.5592 19.7684ZM39.4662 22.4957L41.2526 16.918L43.039 22.4957H39.4662Z" fill="white"/>
<path d="M60.8495 28.184H64.1885C64.1981 28.184 64.206 28.1762 64.206 28.1665V11.3872C64.206 11.3775 64.1981 11.3697 64.1885 11.3697H60.8495C60.8398 11.3697 60.832 11.3775 60.832 11.3872V28.1665C60.832 28.1762 60.8398 28.184 60.8495 28.184Z" fill="white"/>
<path d="M80.6011 28.1669C80.6011 28.1766 80.6089 28.1844 80.6185 28.1844H83.958C83.9676 28.1844 83.9754 28.1766 83.9754 28.1669V11.3876C83.9754 11.3779 83.9676 11.3701 83.958 11.3701H80.0317C80.0257 11.3701 80.02 11.3732 80.017 11.3783L75.1493 19.2869L70.2817 11.3783C70.2786 11.3732 70.2729 11.3701 70.2669 11.3701H66.3407C66.331 11.3701 66.3232 11.3779 66.3232 11.3876V28.1669C66.3232 28.1766 66.331 28.1844 66.3407 28.1844H69.6788C69.6884 28.1844 69.6962 28.1766 69.6962 28.1669V16.871L75.1346 25.7061C75.1408 25.7165 75.158 25.7165 75.1642 25.7061L80.6012 16.8738L80.6011 28.1669Z" fill="white"/>
<path d="M93.71 21.0059V11.387C93.71 11.3773 93.7022 11.3695 93.6926 11.3695H86.1146C86.105 11.3695 86.0972 11.3773 86.0972 11.387V21.0059C86.0972 23.1142 87.8044 24.8293 89.9029 24.8293C92.0022 24.8293 93.71 23.1142 93.71 21.0059ZM114.649 11.3705H110.723C110.717 11.3705 110.712 11.3735 110.708 11.3789L105.841 19.2874L100.973 11.3787C100.97 11.3735 100.964 11.3703 100.958 11.3703H97.032C97.0224 11.3703 97.0146 11.3782 97.0146 11.3878V21.0057C97.0146 24.9446 93.825 28.1491 89.9043 28.1491C89.8947 28.1491 89.8868 28.1569 89.8868 28.1666C89.8868 28.1762 89.8947 28.1841 89.9043 28.1841H97.0304C97.0311 28.1841 97.0314 28.1848 97.032 28.1848H100.37C100.38 28.1848 100.388 28.1769 100.388 28.1673V16.8714L105.826 25.7065C105.832 25.7168 105.849 25.7168 105.855 25.7065L111.292 16.8742V28.1673C111.292 28.1769 111.3 28.1848 111.31 28.1848H114.649C114.659 28.1848 114.667 28.1769 114.667 28.1673V11.388C114.667 11.3782 114.659 11.3705 114.649 11.3705Z" fill="white"/>
</mask>
<g mask="url(#mask0_843_1157)">
<rect width="129" height="48" fill="url(#paint0_linear_843_1157)"/>
</g>
<defs>
<linearGradient id="paint0_linear_843_1157" x1="129" y1="48" x2="42.6158" y2="-41.2482" gradientUnits="userSpaceOnUse">
<stop stop-color="#63C178"/>
<stop offset="1" stop-color="#34AA8E"/>
</linearGradient>
</defs>
</svg>
